<svg version="1.1" id="Layer_1" xmlns="http://www.w3.org/2000/svg" xmlns:xlink="http://www.w3.org/1999/xlink" x="0px" y="0px"
	 width="100%" viewBox="0 0 576 576" enable-background="new 0 0 576 576" xml:space="preserve">
<path fill="#000000" opacity="1.000000" stroke="none" 
	d="
M1.000000,312.468658 
	C3.848070,315.772186 2.543079,320.374268 3.065936,324.486511 
	C7.595349,360.110199 18.371252,393.662048 35.252785,425.293915 
	C44.810814,443.203369 56.281666,459.817413 69.490791,475.229187 
	C90.394325,499.618469 114.355621,520.458557 142.072159,536.757996 
	C170.890213,553.705200 201.645081,565.633667 234.612076,571.830627 
	C244.830032,573.751282 255.153717,574.715027 265.689117,576.723877 
	C177.739624,577.000000 89.479263,577.000000 1.000000,577.000000 
	C1.000000,488.979218 1.000000,400.958282 1.000000,312.468658 
z"/>
<path fill="#000000" opacity="1.000000" stroke="none" 
	d="
M265.531342,1.000000 
	C262.226227,3.799756 257.622955,2.608645 253.516815,3.122910 
	C217.706818,7.607838 184.002075,18.541128 152.231689,35.439426 
	C134.480804,44.880924 118.058159,56.375214 102.745178,69.441887 
	C78.432396,90.188164 57.860744,114.126106 41.536751,141.604446 
	C24.357828,170.521912 12.469381,201.479202 6.194655,234.597870 
	C4.316316,244.511963 3.216394,254.515396 1.321950,264.729980 
	C1.000000,177.072830 1.000000,89.145660 1.000000,1.000000 
	C89.020775,1.000000 177.041733,1.000000 265.531342,1.000000 
z"/>
<path fill="#000000" opacity="1.000000" stroke="none" 
	d="
M312.468658,577.000000 
	C315.777771,574.167358 320.375885,575.490417 324.498901,574.932312 
	C346.918091,571.897705 368.731873,566.704407 389.902100,558.739075 
	C414.431915,549.509644 437.241241,537.196472 458.524536,521.838379 
	C477.804626,507.925781 494.822052,491.600342 510.075867,473.592285 
	C528.930603,451.333130 543.738403,426.486176 554.989014,399.400787 
	C563.575378,378.729706 569.263916,357.382111 573.369019,335.524445 
	C574.739990,328.224854 575.307251,320.774292 576.620972,313.196381 
	C577.000000,400.927155 577.000000,488.854340 577.000000,577.000000 
	C488.979218,577.000000 400.958282,577.000000 312.468658,577.000000 
z"/>
<path fill="#000000" opacity="1.000000" stroke="none" 
	d="
M577.000000,265.531342 
	C574.189941,262.203766 575.539673,257.612640 574.960693,253.472046 
	C572.106506,233.059845 567.581055,213.109863 560.805359,193.645950 
	C550.682312,164.566574 536.212280,137.868179 517.363586,113.522827 
	C494.633179,84.163719 467.384705,59.796532 435.484650,40.901886 
	C405.541840,23.166571 373.296051,11.200670 338.900238,5.376741 
	C330.436737,3.943690 321.897461,2.957811 313.196533,1.383178 
	C400.927155,1.000000 488.854340,1.000000 577.000000,1.000000 
	C577.000000,89.020775 577.000000,177.041733 577.000000,265.531342 
z"/>
<path fill="#000000" opacity="1.000000" stroke="none" 
	d="
M297.963043,365.032135 
	C292.988647,363.753204 287.952576,362.793884 283.374237,360.173584 
	C272.430176,353.910065 271.207581,335.304169 281.866791,328.070251 
	C289.373505,345.015930 304.553436,344.012756 319.236816,344.128693 
	C313.658020,341.603638 307.432465,342.202393 301.549805,340.628601 
	C287.168671,336.781250 281.050323,327.073547 284.371246,312.517181 
	C285.731415,306.555298 288.328918,301.210571 292.844757,296.960114 
	C294.360352,295.533569 295.903351,292.868530 298.153076,294.258972 
	C300.608154,295.776306 301.271637,298.839417 300.977722,301.799072 
	C300.899261,302.589233 300.377380,303.337219 300.049286,304.100342 
	C297.574799,309.856079 299.500000,314.978210 305.253723,317.454651 
	C313.932678,321.190094 323.131195,321.413727 332.264221,320.432281 
	C336.911438,319.932892 338.875214,315.132446 340.098297,311.480560 
	C341.253510,308.031219 338.132141,304.664734 335.101837,303.046692 
	C329.297668,299.947449 327.595947,294.583588 325.652344,289.053802 
	C324.282043,285.155151 325.523163,283.847809 329.381744,283.949341 
	C338.380829,284.186249 346.797821,286.562286 354.649597,290.856750 
	C357.195831,292.249329 359.283386,293.124084 361.766754,290.704071 
	C364.434326,288.104553 366.245667,290.465332 367.974731,292.276794 
	C370.096344,294.499573 368.236084,295.808105 366.770935,297.186615 
	C360.453888,303.130188 354.437836,309.355713 349.074188,316.185547 
	C348.265289,317.215576 347.580780,318.343262 346.646484,319.706207 
	C349.628723,321.470215 352.655823,320.748535 355.465393,320.688416 
	C363.198273,320.522949 370.349335,322.849701 377.060730,326.123596 
	C389.170807,332.030975 393.145691,343.505249 388.339172,356.955627 
	C385.259003,365.575043 379.919983,372.811554 374.059448,379.675293 
	C365.300415,389.933746 356.312347,400.014404 349.300018,411.610535 
	C347.800537,414.090179 346.087830,413.874664 343.804810,413.148346 
	C335.563843,410.526459 327.396271,407.542603 318.993134,405.589783 
	C303.207520,401.921295 288.302155,405.320251 274.086761,412.566132 
	C272.704620,413.270630 271.562775,414.894928 269.321014,413.986603 
	C269.094086,411.364685 270.660675,409.385406 272.011414,407.391113 
	C277.941040,398.636200 286.420410,393.085541 296.033600,389.388672 
	C313.859314,382.533600 332.008362,382.170715 350.248657,387.862885 
	C351.708527,388.318451 353.183655,389.110718 354.376007,387.642029 
	C360.854736,379.661713 368.385864,372.319275 370.775726,361.766541 
	C372.326294,354.919739 369.645233,348.319977 363.229279,345.556519 
	C353.675293,341.441406 343.574799,341.796326 332.468048,343.151154 
	C334.819275,345.246399 336.673065,344.659607 338.315186,344.704865 
	C343.634491,344.851440 348.932281,344.705383 354.236542,345.706482 
	C366.202820,347.964844 370.673309,355.663391 366.658112,367.130707 
	C364.287994,373.899750 360.810364,379.229401 353.213287,380.770111 
	C352.949554,380.027802 352.675903,379.667175 352.758209,379.430176 
	C355.723694,370.891815 354.567017,368.906219 345.523804,366.788574 
	C338.457489,365.133881 331.237579,366.271942 324.117554,365.516327 
	C321.260529,365.213135 320.283203,367.835938 319.057343,369.741211 
	C314.668610,376.562225 309.570496,382.594147 302.070129,386.222473 
	C295.739594,389.284821 289.747101,389.017914 284.416870,384.286530 
	C281.301239,381.520966 279.442841,377.995422 280.855164,373.592010 
	C282.398010,368.781616 285.414398,365.438965 290.620453,364.779968 
	C292.740906,364.511536 294.940063,364.864532 297.758667,365.218597 
	C300.716034,367.541687 303.018127,369.581024 305.568512,371.840302 
	C307.064209,370.423126 309.595581,369.307861 309.395844,365.796844 
	C305.467041,365.534058 301.715027,365.283081 297.963043,365.032135 
z"/>
<path fill="#000000" opacity="1.000000" stroke="none" 
	d="
M271.881836,246.410034 
	C275.067322,243.443588 274.380798,238.169830 277.912567,235.473022 
	C280.217957,236.282700 280.363983,238.132355 280.840607,239.633606 
	C283.106201,246.769363 285.272247,253.936874 287.449707,261.100403 
	C289.065582,266.416504 287.806854,268.212677 282.396973,269.455505 
	C271.460175,271.968018 260.771332,275.171600 252.419556,283.278931 
	C249.997223,285.630371 247.756546,284.923492 245.173065,283.710541 
	C236.494720,279.635925 227.470230,277.190338 217.736053,277.295288 
	C210.381516,277.374573 203.684631,279.614319 197.009811,282.210999 
	C195.519913,282.790649 194.180740,283.882477 191.658951,283.270050 
	C195.852600,272.512482 203.713943,265.908234 213.511383,260.698853 
	C207.435089,261.335510 201.587677,262.833130 196.053619,258.223999 
	C207.192825,251.449265 201.318909,241.222198 203.150101,232.812714 
	C201.301849,232.085175 201.099472,233.142303 200.807693,233.805847 
	C199.079773,237.735214 196.988266,236.667328 194.813126,234.277161 
	C187.833771,226.607773 189.702744,212.835281 198.721390,207.778580 
	C202.056641,205.908524 203.719833,204.055435 204.242249,199.983536 
	C205.121063,193.133926 209.421997,187.909576 214.802399,183.608765 
	C216.167923,182.517227 218.059219,181.924149 218.923172,179.706985 
	C208.758026,178.052582 197.089172,180.198502 190.356628,170.034561 
	C186.180222,163.729523 185.726044,156.166687 186.073761,147.705246 
	C191.276855,150.674881 195.343307,153.873856 200.728317,154.247025 
	C203.539917,154.441864 206.352432,154.728210 209.175446,154.730713 
	C227.003235,154.746521 244.843079,155.133118 262.654541,154.592789 
	C274.186218,154.242966 286.046051,162.237488 287.689789,176.215866 
	C288.520416,183.280014 287.925598,190.515030 287.893005,197.672424 
	C287.889679,198.404694 287.320465,199.134399 286.760956,200.468124 
	C280.009216,196.781265 273.037659,196.351807 265.890259,197.921539 
	C259.515839,192.412384 252.251877,197.913315 245.524918,196.294861 
	C242.147186,195.482193 240.538147,197.532654 240.506775,200.746490 
	C240.446625,206.904663 240.548355,213.064270 240.517944,219.222961 
	C240.509888,220.853958 241.273224,221.572998 242.762100,221.995300 
	C249.271851,223.841629 255.606705,222.751251 261.914948,220.994308 
	C263.769196,220.477859 263.790161,218.351746 264.962128,217.315445 
	C272.898987,219.041245 270.615814,226.957230 265.657898,233.803131 
	C261.987762,229.513809 262.011688,229.678513 255.025452,230.693436 
	C251.763474,231.167313 248.338638,231.237991 245.078781,230.805069 
	C241.871399,230.379135 240.878677,231.633636 240.622803,234.440643 
	C240.031143,240.931030 240.370758,247.421616 240.482910,253.914017 
	C240.518890,255.996185 241.812103,256.944366 243.588943,257.199127 
	C250.906433,258.248138 257.703735,260.846039 264.198273,264.145569 
	C266.497101,262.711121 266.475128,260.401093 267.258972,257.730164 
	C268.929871,253.516998 270.405853,249.963516 271.881836,246.410034 
M228.090637,224.499374 
	C228.091614,226.499039 228.022858,228.501572 228.105255,230.497864 
	C228.539322,241.014099 228.004288,251.187302 217.271378,258.714386 
	C221.252823,258.114319 223.836060,257.576447 226.445648,257.367310 
	C230.145950,257.070770 231.214279,255.477844 231.170807,251.605209 
	C230.931412,230.278214 231.087067,208.946899 231.077240,187.617065 
	C231.076294,185.580368 231.503799,183.436508 229.733826,181.562927 
	C227.027496,195.467209 228.600281,209.533127 228.090637,224.499374 
M257.944061,177.331833 
	C253.636780,177.323257 249.326752,177.405594 245.023178,177.274857 
	C242.042038,177.184311 240.210007,178.012054 240.341766,181.403595 
	C240.458984,184.420471 240.066330,187.771439 244.450424,187.904480 
	C249.230957,188.049545 254.037994,188.522171 258.767548,187.160614 
	C261.145966,186.475906 263.898163,186.428238 263.849518,182.912003 
	C263.803375,179.576248 262.234985,177.629150 257.944061,177.331833 
z"/>
<path fill="#000000" opacity="1.000000" stroke="none" 
	d="
M271.943420,245.990601 
	C270.405853,249.963516 268.929871,253.516998 267.315857,257.344238 
	C265.364197,259.175446 265.509460,263.576904 261.074219,261.326324 
	C257.843719,259.687042 257.087158,257.752441 258.519012,254.541229 
	C261.974030,246.792725 265.337585,239.003326 268.718719,231.222031 
	C270.532867,227.046921 273.806915,222.880371 269.615753,218.373749 
	C265.530914,213.981491 260.621735,212.992310 255.059341,215.407547 
	C254.512833,215.644852 253.803772,215.507828 252.973587,215.555954 
	C251.826355,211.646820 254.020599,208.956619 256.081207,206.529999 
	C266.576660,194.170425 284.875366,195.715164 293.363068,209.597473 
	C298.703339,218.331955 300.713165,228.462906 304.994934,237.645477 
	C305.402893,238.520370 305.320862,239.667465 306.681519,240.239471 
	C309.165680,240.132538 311.130493,237.817108 313.894073,237.743423 
	C316.645874,237.670074 319.155670,238.075607 321.475586,239.671906 
	C325.738617,242.605286 325.818176,243.771606 321.775482,246.847046 
	C314.084564,252.697845 312.641815,258.038055 316.122925,267.329926 
	C319.798523,277.141083 323.419647,286.972748 327.033569,296.806854 
	C328.680969,301.289612 331.055908,305.258209 335.146606,307.891876 
	C338.266235,309.900330 337.894470,311.793335 335.711273,314.354248 
	C329.678131,321.431122 325.822540,321.936890 318.428680,316.261810 
	C316.430420,314.728088 314.305908,312.822540 311.712341,313.596039 
	C307.760437,314.774567 306.732452,312.590271 305.806274,309.599487 
	C304.430237,305.156067 302.819519,300.785339 301.443085,296.342041 
	C300.519684,293.361267 298.732849,292.166534 295.560242,292.194580 
	C282.567566,292.309357 269.572266,292.314697 256.580139,292.165771 
	C253.397186,292.129272 251.538986,293.307220 250.611481,296.233337 
	C250.410507,296.867310 250.156204,297.485046 249.912674,298.104828 
	C247.001160,305.514404 247.020630,305.437103 254.457977,307.382294 
	C257.181488,308.094666 259.843231,309.135162 262.421997,310.276978 
	C264.191681,311.060577 265.587219,311.723694 267.368744,310.116577 
	C269.681610,308.030151 271.311035,310.113159 272.853607,311.567474 
	C274.688385,313.297272 273.684265,314.824646 272.362366,316.304108 
	C266.927155,322.387146 261.509552,328.485901 256.078674,334.572784 
	C254.514755,336.325623 252.879837,336.574371 250.817261,335.184753 
	C238.262054,326.725952 225.366638,325.148010 212.077057,333.530060 
	C211.170944,334.101532 210.262787,334.518250 209.346786,333.748932 
	C208.187469,332.775269 208.161118,331.463379 208.493164,330.084961 
	C209.696091,325.091309 211.934952,320.745300 216.114197,317.552338 
	C221.035858,313.792145 226.188644,310.442352 232.224899,308.766693 
	C234.814667,308.047791 236.664627,306.726074 237.677139,304.150055 
	C239.257935,300.128174 241.003174,296.171204 242.655624,292.177155 
	C243.958160,289.028809 244.537582,285.080780 249.642899,286.505035 
	C250.192703,286.658417 251.148453,285.878387 251.726501,285.331238 
	C261.607758,275.977875 274.028168,272.475800 286.897217,269.984924 
	C288.014893,269.768585 289.115204,269.462128 291.191467,268.966461 
	C287.160706,255.818817 283.214294,242.946411 279.267914,230.074005 
	C275.844055,235.171982 273.365112,240.132721 271.943420,245.990601 
z"/>
<path fill="#000000" opacity="1.000000" stroke="none" 
	d="
M128.616989,168.849518 
	C126.175331,169.155045 124.978790,167.600098 123.600677,166.459290 
	C114.876831,159.237579 106.246964,151.900284 97.437073,144.785645 
	C94.190193,142.163559 93.351120,139.942413 96.624939,136.685425 
	C99.209419,134.114227 101.356102,131.097641 103.650673,128.241470 
	C108.724518,121.925812 115.063416,121.349258 121.299385,126.606926 
	C126.264229,130.792892 131.262497,134.939850 136.281799,139.060425 
	C143.334717,144.850479 144.037262,150.737350 138.373062,157.741058 
	C135.342926,161.487778 132.632751,165.515030 128.616989,168.849518 
M117.551758,136.946274 
	C117.150230,136.651398 116.689240,136.411636 116.356606,136.052887 
	C113.748497,133.240005 111.848938,134.617538 109.834877,136.927368 
	C107.556206,139.540665 109.130516,141.047150 111.075256,142.639175 
	C115.312119,146.107590 119.581703,149.539932 123.720924,153.122192 
	C126.019058,155.111084 127.697189,154.762115 129.557098,152.524567 
	C131.386230,150.324066 131.558075,148.597839 129.165955,146.683762 
	C125.407379,143.676239 121.786362,140.496780 117.551758,136.946274 
z"/>
<path fill="#000000" opacity="1.000000" stroke="none" 
	d="
M440.797546,143.594696 
	C440.651917,147.006927 442.886292,148.974014 445.199860,149.740814 
	C447.434814,150.481537 448.534607,147.564056 450.088013,146.358078 
	C449.940491,143.833511 448.036560,142.747223 446.821320,141.262070 
	C441.621246,134.907166 442.064545,129.014465 448.447723,123.670868 
	C451.044067,121.497383 453.299347,119.206161 457.203644,118.498299 
	C466.377716,116.835014 476.009705,130.182831 473.169128,138.795746 
	C472.118347,141.981766 469.612701,144.260269 466.561615,144.965759 
	C463.680328,145.631989 462.632507,142.427841 461.096222,140.580994 
	C460.273468,139.591965 460.176636,138.294815 461.226135,137.426575 
	C464.995911,134.307800 462.925720,131.677048 460.201172,129.858093 
	C456.669678,127.500420 455.752472,131.624481 453.262054,133.076508 
	C454.987946,135.165939 456.452484,136.933319 457.910919,138.705704 
	C461.621735,143.215210 461.307098,149.934647 457.034302,153.837234 
	C454.249725,156.380569 451.681610,159.208908 447.766541,160.275177 
	C438.350189,162.839706 426.612366,148.082947 430.756958,139.871109 
	C432.199860,137.012253 434.171936,134.763550 437.053253,133.905075 
	C439.769989,133.095657 440.901611,135.853775 442.412598,137.555222 
	C444.814148,140.259598 442.432434,141.647415 440.797546,143.594696 
z"/>
<path fill="#000000" opacity="1.000000" stroke="none" 
	d="
M277.332153,494.257751 
	C276.896851,500.020538 276.468201,505.318604 276.053986,510.617798 
	C275.916229,512.379761 274.856323,513.615356 273.878815,514.992065 
	C269.192291,521.592590 251.999878,521.480591 247.708206,511.717102 
	C246.927216,509.940338 246.705963,508.210083 246.914047,506.380859 
	C247.833740,498.296082 248.765503,490.212402 249.755295,482.135986 
	C250.347443,477.304077 254.326004,474.441833 257.925323,473.617035 
	C262.862885,472.485535 268.705566,472.582733 273.199127,475.683929 
	C277.763580,478.834015 279.398804,483.735321 278.063171,489.368805 
	C277.719330,490.818970 277.578522,492.317322 277.332153,494.257751 
M257.381897,505.414703 
	C257.108215,508.628876 259.282196,508.683167 261.583740,508.807770 
	C264.086517,508.943176 265.827850,508.258087 266.117126,505.494232 
	C266.718994,499.743591 267.274353,493.987823 267.913086,488.241302 
	C268.293121,484.822205 266.040710,484.064514 263.430267,483.558472 
	C260.328674,482.957184 259.720703,485.108032 259.435303,487.333496 
	C258.699310,493.072418 258.098602,498.828705 257.381897,505.414703 
z"/>
<path fill="#000000" opacity="1.000000" stroke="none" 
	d="
M363.966492,459.910522 
	C369.483673,457.184570 374.395966,453.840271 380.711609,456.982819 
	C384.331238,458.783875 385.598297,461.815399 386.508972,465.205688 
	C387.079468,467.329651 385.240479,468.045502 383.715790,468.730164 
	C381.964691,469.516541 380.320068,470.979828 378.228088,469.273224 
	C374.139923,465.938049 374.106110,465.979492 368.910400,468.883881 
	C368.845825,471.359039 369.719482,473.510040 371.734863,475.529144 
	C373.751923,474.609406 375.669525,473.664886 377.640411,472.848999 
	C384.463348,470.024689 390.491425,472.606628 393.468414,479.320007 
	C395.421844,483.725159 397.706757,487.623291 394.844696,492.859314 
	C391.177490,499.568298 378.323578,503.523651 372.062256,499.056915 
	C369.447998,497.191895 368.287781,494.187195 368.212494,491.286835 
	C368.149017,488.840454 371.141937,488.454468 373.022980,487.548126 
	C376.813171,485.721893 376.928741,490.206635 379.077423,491.255005 
	C380.879974,491.343536 382.212006,490.228302 383.676727,489.505981 
	C385.997986,488.361328 386.073303,486.617767 384.994476,484.504974 
	C383.833618,482.231628 382.138824,481.868408 380.029388,482.987732 
	C375.305908,485.494080 370.805664,486.730194 365.532837,483.727203 
	C357.346497,479.064911 356.054504,465.612610 363.966492,459.910522 
z"/>
<path fill="#000000" opacity="1.000000" stroke="none" 
	d="
M138.886322,433.870819 
	C135.970840,437.089447 133.325745,440.076385 130.615677,443.003174 
	C128.622253,445.156036 129.430374,446.791656 131.303528,448.487915 
	C133.154205,450.163818 134.814926,450.859650 136.818100,448.696045 
	C142.691986,442.351807 148.773880,436.193146 154.475632,429.699554 
	C157.225510,426.567780 159.254395,425.964325 162.603836,428.976044 
	C166.002548,432.032043 164.370377,433.716858 162.041260,436.163147 
	C155.506516,443.026672 149.258484,450.162323 142.771759,457.072784 
	C138.245010,461.895233 130.755692,461.925262 126.066277,457.367126 
	C124.635124,455.976044 123.151070,454.638489 121.741798,453.225952 
	C117.787712,449.262817 117.378899,442.517548 121.051537,438.406860 
	C127.585869,431.093109 134.341171,423.975922 140.833115,416.625580 
	C143.543365,413.556976 145.740616,413.566101 148.705933,416.304382 
	C151.301468,418.701141 151.230774,420.536804 148.896637,422.944946 
	C145.542297,426.405670 142.375610,430.048340 138.886322,433.870819 
z"/>
<path fill="#000000" opacity="1.000000" stroke="none" 
	d="
M168.536682,99.291611 
	C166.820999,93.000908 165.402985,87.042038 163.673615,81.174957 
	C162.784225,78.157539 163.137680,76.157257 166.198929,74.688011 
	C168.949249,73.367996 171.100876,71.745483 174.043472,74.867241 
	C182.601120,83.945953 191.519928,92.683311 200.211090,101.638031 
	C201.585403,103.054039 204.052536,104.859200 201.366821,106.959633 
	C199.045502,108.775078 196.515228,111.658928 193.084595,108.728920 
	C191.217407,107.134209 189.810089,104.864693 186.780777,106.977547 
	C184.092667,108.852432 181.492584,110.356377 182.668304,114.438110 
	C183.951523,118.892975 179.962601,119.805832 177.287415,120.794609 
	C174.231766,121.924011 174.290558,118.828018 173.484619,116.908035 
	C171.152313,111.351700 170.766495,105.277481 168.536682,99.291611 
z"/>
<path fill="#000000" opacity="1.000000" stroke="none" 
	d="
M81.903595,403.035522 
	C80.026543,400.291351 79.219261,397.938110 82.286346,395.902496 
	C85.386002,393.845215 84.169662,391.500580 82.876144,388.998169 
	C81.616737,386.561798 80.318047,384.956207 77.081039,385.777771 
	C73.536972,386.677185 69.678825,383.163788 69.650658,379.502869 
	C69.635056,377.474487 71.071930,377.151520 72.593056,376.793854 
	C85.355392,373.792999 98.130379,370.842438 110.858818,367.703400 
	C114.007790,366.926819 115.007324,368.828979 116.180092,370.915436 
	C117.520729,373.300507 118.805199,375.445007 116.023933,377.952545 
	C108.112022,385.085876 100.376717,392.414948 92.562660,399.657043 
	C90.853767,401.240845 89.030182,402.707825 87.394997,404.362610 
	C85.037025,406.748840 83.396904,406.100220 81.903595,403.035522 
z"/>
<path fill="#000000" opacity="1.000000" stroke="none" 
	d="
M401.255066,99.101959 
	C399.890778,104.136169 398.589081,108.765869 397.267822,113.389969 
	C396.703552,115.364708 396.715759,118.377327 393.579529,117.404221 
	C390.786835,116.537712 386.797302,115.745598 387.842468,111.363365 
	C388.601288,108.181923 388.502960,106.226875 385.231079,104.496681 
	C382.207642,102.897865 380.124146,102.352676 377.478333,105.171867 
	C374.398956,108.453003 371.521729,105.661720 369.267120,103.707214 
	C366.614868,101.407990 369.536133,99.908012 370.850098,98.534615 
	C379.116394,89.894295 387.583740,81.444084 395.752258,72.713615 
	C398.581207,69.690079 401.028717,69.576599 404.447205,71.550537 
	C407.840393,73.509834 407.691620,75.751488 406.653564,79.030602 
	C404.605225,85.500916 403.061890,92.131096 401.255066,99.101959 
z"/>
<path fill="#000000" opacity="1.000000" stroke="none" 
	d="
M472.071899,375.802917 
	C481.279755,378.238586 490.118591,380.484070 498.891235,382.963562 
	C500.641602,383.458252 503.982391,383.372375 502.666931,386.780731 
	C501.643738,389.431763 500.708984,393.145294 496.681793,392.127167 
	C493.045868,391.207977 491.232483,392.464355 489.519287,395.460968 
	C487.726349,398.597046 488.858368,400.453644 491.001312,402.831635 
	C493.900269,406.048645 491.017914,408.863647 489.107422,411.112000 
	C487.116425,413.455048 485.553741,410.882263 484.256287,409.639069 
	C475.364655,401.119263 466.592896,392.474213 457.682587,383.974274 
	C455.425659,381.821320 454.732605,379.894623 456.516907,377.034607 
	C458.220245,374.304413 459.658203,371.975861 463.520752,373.452667 
	C466.142822,374.455170 468.953339,374.964874 472.071899,375.802917 
z"/>
<path fill="#000000" opacity="1.000000" stroke="none" 
	d="
M446.773376,459.814697 
	C441.052155,466.471680 440.722992,466.431396 435.294617,460.570099 
	C427.943512,452.632751 420.576080,444.706635 413.037079,436.949280 
	C410.495361,434.333954 410.327759,432.377319 413.083923,429.922791 
	C416.188995,427.157593 419.066132,424.137573 422.065948,421.252869 
	C427.021545,416.487366 433.068390,416.471252 437.859833,421.495056 
	C440.470520,424.232300 444.040100,426.513306 444.988251,430.308014 
	C446.276337,435.463226 445.077728,440.188293 440.347351,443.488220 
	C436.964630,445.847992 437.078461,448.115997 440.057495,451.081390 
	C442.583099,453.595490 445.840271,455.686951 446.773376,459.814697 
M424.748322,433.499969 
	C425.490753,436.229309 427.429321,437.845001 429.610077,439.177490 
	C436.035126,434.643646 436.366486,433.363312 432.160034,429.993195 
	C428.065979,426.713196 426.988586,431.110901 424.748322,433.499969 
z"/>
<path fill="#000000" opacity="1.000000" stroke="none" 
	d="
M192.638412,455.011444 
	C194.333130,451.768188 196.527939,452.607178 198.768280,453.620880 
	C203.616501,455.814758 208.414291,458.133728 213.339584,460.139008 
	C216.888763,461.584015 217.794281,463.511139 216.077438,467.079132 
	C214.492569,470.372803 212.776947,472.010010 209.268677,469.566864 
	C208.626770,469.119812 207.783264,468.962250 206.546585,468.482422 
	C202.397980,477.559265 198.119247,486.345825 194.381500,495.356842 
	C192.677490,499.464874 190.757523,500.181000 186.843384,498.361969 
	C182.885376,496.522552 183.544708,494.406219 185.077881,491.214081 
	C188.821243,483.420166 192.158142,475.431641 195.704910,467.542267 
	C196.625381,465.494751 197.059525,463.749146 194.339722,462.754730 
	C190.122711,461.212830 190.288345,458.505585 192.638412,455.011444 
z"/>
<path fill="#000000" opacity="1.000000" stroke="none" 
	d="
M235.044907,58.674534 
	C234.792450,56.422554 235.006088,54.469090 234.406097,52.809834 
	C232.597183,47.807232 235.245255,46.838654 239.383881,46.278111 
	C242.388412,45.871174 243.732971,46.737301 244.226929,49.617180 
	C245.483963,56.946301 247.027435,64.231155 248.101044,71.585587 
	C249.299820,79.797653 249.129349,79.822548 257.331146,78.839828 
	C262.653381,78.202126 264.779449,80.359840 264.225525,85.590111 
	C264.014801,87.580193 263.038971,88.725792 261.225739,88.997421 
	C255.655182,89.831909 250.087799,90.594513 244.578339,91.861427 
	C240.893036,92.708878 240.360413,89.791405 239.898071,86.970787 
	C238.374023,77.672829 236.734314,68.393837 235.044907,58.674534 
z"/>
<path fill="#000000" opacity="1.000000" stroke="none" 
	d="
M75.993652,272.766541 
	C69.948105,268.930634 65.806694,263.429596 60.757584,258.902466 
	C59.042286,257.364471 59.428875,255.791962 61.012794,254.214798 
	C65.010780,250.233948 68.901321,246.145462 72.863159,242.127960 
	C74.813400,240.150330 76.751831,239.901550 78.858948,242.073456 
	C82.788704,246.124008 86.804726,250.091827 90.827209,254.051025 
	C92.381371,255.580719 92.832832,257.044769 91.057701,258.699036 
	C86.093391,263.325256 81.863007,268.718842 75.993652,272.766541 
z"/>
<path fill="#000000" opacity="1.000000" stroke="none" 
	d="
M320.756897,79.397079 
	C322.298859,79.659698 323.449524,79.891655 324.606018,79.925476 
	C328.780243,80.047546 329.770691,82.134003 329.433380,86.139603 
	C329.084717,90.279755 326.856995,90.690102 323.730072,90.251175 
	C318.969360,89.582901 314.235565,88.718018 309.470215,88.089195 
	C306.185394,87.655731 305.336945,85.659019 305.777191,82.811325 
	C307.624146,70.864006 309.573792,58.932430 311.385773,46.979923 
	C311.993683,42.970070 314.384796,42.300808 317.831329,42.923958 
	C321.100891,43.515110 321.858307,45.099846 321.535858,48.511623 
	C320.784332,56.462688 318.590149,64.136681 317.640076,72.024208 
	C317.303101,74.821671 315.903046,78.205765 320.756897,79.397079 
z"/>
<path fill="#000000" opacity="1.000000" stroke="none" 
	d="
M492.750763,246.751892 
	C500.828949,238.569977 499.371033,238.472794 507.379578,246.477127 
	C517.451843,256.543976 517.421021,256.574799 507.216827,266.712708 
	C500.213989,273.670135 500.214020,273.670105 493.011780,266.556702 
	C492.893311,266.439697 492.766602,266.331055 492.647736,266.214417 
	C482.869202,256.615265 482.869232,256.615234 492.750763,246.751892 
z"/>
</svg>